<?xml version="1.0" encoding="UTF-8" standalone="no"?>
<!DOCTYPE svg PUBLIC "-//W3C//DTD SVG 1.1//EN"
 "http://www.w3.org/Graphics/SVG/1.1/DTD/svg11.dtd">
<!-- Generated by graphviz version 12.2.0 (20241103.1931)
 -->
<!-- Title: update_gp Pages: 1 -->
<svg width="205pt" height="212pt"
 viewBox="0.00 0.00 205.00 212.25" xmlns="http://www.w3.org/2000/svg" xmlns:xlink="http://www.w3.org/1999/xlink">

<svg id="main" version="1.1" xmlns="http://www.w3.org/2000/svg" xmlns:xlink="http://www.w3.org/1999/xlink" xml:space="preserve">

<style type="text/css"><![CDATA[
.node, .edge {opacity: 0.7;}
.node.selected, .edge.selected {opacity: 1;}
.edge:hover path { stroke: red; }
.edge:hover polygon { stroke: red; fill: red; }
]]></style>
<script type="application/ecmascript" xlink:href="svg.min.js"/>
<svg id="graph" class="graph">
<g id="graph0" class="graph" transform="scale(1 1) rotate(0) translate(4 208.25)">
<title>update_gp</title>
<!-- Node1 -->
<g id="Node000001" class="node">
<title>Node1</title>
<g id="a_Node000001"><a xlink:title=" ">
<polygon fill="#999999" stroke="#666666" points="61,-111.25 0,-111.25 0,-92 61,-92 61,-111.25"/>
<text text-anchor="middle" x="30.5" y="-97.75" font-family="Helvetica,sans-Serif" font-size="10.00">update_gp</text>
</a>
</g>
</g>
<!-- Node2 -->
<g id="Node000002" class="node">
<title>Node2</title>
<g id="a_Node000002"><a xlink:href="group__estimates__smoothing.html#ga418b9ba49bfb6a4ff8ec4331826d032d" target="_top" xlink:title=" ">
<polygon fill="white" stroke="#666666" points="183.5,-204.25 110.5,-204.25 110.5,-185 183.5,-185 183.5,-204.25"/>
<text text-anchor="middle" x="147" y="-190.75" font-family="Helvetica,sans-Serif" font-size="10.00">diagSPD_EQ</text>
</a>
</g>
</g>
<!-- Node1&#45;&gt;Node2 -->
<g id="edge1_Node000001_Node000002" class="edge">
<title>Node1&#45;&gt;Node2</title>
<g id="a_edge1_Node000001_Node000002"><a xlink:title=" ">
<path fill="none" stroke="#63b8ff" d="M37.74,-111.55C48.18,-127.4 70.65,-158.5 97,-176.62 98.54,-177.68 100.15,-178.69 101.81,-179.64"/>
<polygon fill="#63b8ff" stroke="#63b8ff" points="99.82,-182.56 110.34,-183.87 102.93,-176.29 99.82,-182.56"/>
</a>
</g>
</g>
<!-- Node3 -->
<g id="Node000003" class="node">
<title>Node3</title>
<g id="a_Node000003"><a xlink:href="group__estimates__smoothing.html#gaba328da750fac44cab0ca4e9a0b41274" target="_top" xlink:title=" ">
<polygon fill="white" stroke="#666666" points="197,-167.25 97,-167.25 97,-148 197,-148 197,-167.25"/>
<text text-anchor="middle" x="147" y="-153.75" font-family="Helvetica,sans-Serif" font-size="10.00">diagSPD_Matern12</text>
</a>
</g>
</g>
<!-- Node1&#45;&gt;Node3 -->
<g id="edge2_Node000001_Node000003" class="edge">
<title>Node1&#45;&gt;Node3</title>
<g id="a_edge2_Node000001_Node000003"><a xlink:title=" ">
<path fill="none" stroke="#63b8ff" d="M46.97,-111.63C59.99,-119.79 79.27,-131.3 97,-139.62 99.75,-140.92 102.62,-142.18 105.53,-143.4"/>
<polygon fill="#63b8ff" stroke="#63b8ff" points="104.13,-146.6 114.71,-147.03 106.71,-140.1 104.13,-146.6"/>
</a>
</g>
</g>
<!-- Node4 -->
<g id="Node000004" class="node">
<title>Node4</title>
<g id="a_Node000004"><a xlink:href="group__estimates__smoothing.html#gae443d4d2b3b752c07ed835b83ecd0e86" target="_top" xlink:title=" ">
<polygon fill="white" stroke="#666666" points="197,-130.25 97,-130.25 97,-111 197,-111 197,-130.25"/>
<text text-anchor="middle" x="147" y="-116.75" font-family="Helvetica,sans-Serif" font-size="10.00">diagSPD_Matern32</text>
</a>
</g>
</g>
<!-- Node1&#45;&gt;Node4 -->
<g id="edge3_Node000001_Node000004" class="edge">
<title>Node1&#45;&gt;Node4</title>
<g id="a_edge3_Node000001_Node000004"><a xlink:title=" ">
<path fill="none" stroke="#63b8ff" d="M61.28,-106.57C68.84,-107.82 77.23,-109.21 85.71,-110.62"/>
<polygon fill="#63b8ff" stroke="#63b8ff" points="84.92,-114.04 95.36,-112.22 86.07,-107.13 84.92,-114.04"/>
</a>
</g>
</g>
<!-- Node5 -->
<g id="Node000005" class="node">
<title>Node5</title>
<g id="a_Node000005"><a xlink:href="group__estimates__smoothing.html#gadd4a066ad1281db47c82a5096af8099a" target="_top" xlink:title=" ">
<polygon fill="white" stroke="#666666" points="197,-93.25 97,-93.25 97,-74 197,-74 197,-93.25"/>
<text text-anchor="middle" x="147" y="-79.75" font-family="Helvetica,sans-Serif" font-size="10.00">diagSPD_Matern52</text>
</a>
</g>
</g>
<!-- Node1&#45;&gt;Node5 -->
<g id="edge4_Node000001_Node000005" class="edge">
<title>Node1&#45;&gt;Node5</title>
<g id="a_edge4_Node000001_Node000005"><a xlink:title=" ">
<path fill="none" stroke="#63b8ff" d="M61.28,-96.94C68.84,-95.75 77.23,-94.44 85.71,-93.1"/>
<polygon fill="#63b8ff" stroke="#63b8ff" points="86.02,-96.6 95.36,-91.59 84.94,-89.68 86.02,-96.6"/>
</a>
</g>
</g>
<!-- Node6 -->
<g id="Node000006" class="node">
<title>Node6</title>
<g id="a_Node000006"><a xlink:href="group__estimates__smoothing.html#ga56305a04b7b8ac024c83766cb6b6eafc" target="_top" xlink:title=" ">
<polygon fill="white" stroke="#666666" points="194.38,-56.25 99.62,-56.25 99.62,-37 194.38,-37 194.38,-56.25"/>
<text text-anchor="middle" x="147" y="-42.75" font-family="Helvetica,sans-Serif" font-size="10.00">diagSPD_Periodic</text>
</a>
</g>
</g>
<!-- Node1&#45;&gt;Node6 -->
<g id="edge5_Node000001_Node000006" class="edge">
<title>Node1&#45;&gt;Node6</title>
<g id="a_edge5_Node000001_Node000006"><a xlink:title=" ">
<path fill="none" stroke="#63b8ff" d="M47.53,-91.6C60.56,-83.69 79.57,-72.68 97,-64.62 99.76,-63.35 102.63,-62.1 105.55,-60.89"/>
<polygon fill="#63b8ff" stroke="#63b8ff" points="106.72,-64.19 114.74,-57.27 104.15,-57.68 106.72,-64.19"/>
</a>
</g>
</g>
<!-- Node7 -->
<g id="Node000007" class="node">
<title>Node7</title>
<g id="a_Node000007"><a xlink:href="group__estimates__smoothing.html#gacb839312fe55f00e52b127baf5255990" target="_top" xlink:title=" ">
<polygon fill="white" stroke="#666666" points="163.62,-19.25 130.38,-19.25 130.38,0 163.62,0 163.62,-19.25"/>
<text text-anchor="middle" x="147" y="-5.75" font-family="Helvetica,sans-Serif" font-size="10.00">PHI</text>
</a>
</g>
</g>
<!-- Node1&#45;&gt;Node7 -->
<g id="edge6_Node000001_Node000007" class="edge">
<title>Node1&#45;&gt;Node7</title>
<g id="a_edge6_Node000001_Node000007"><a xlink:title=" ">
<path fill="none" stroke="#63b8ff" d="M37.94,-91.58C48.5,-75.87 70.93,-45.43 97,-27.62 103.66,-23.08 111.61,-19.52 119.15,-16.81"/>
<polygon fill="#63b8ff" stroke="#63b8ff" points="120.15,-20.16 128.61,-13.79 118.02,-13.49 120.15,-20.16"/>
</a>
</g>
</g>
</g>
</svg>
</svg>

<style type='text/css'>
<![CDATA[
[data-mouse-over-selected='false'] { opacity: 0.7; }
[data-mouse-over-selected='true']  { opacity: 1.0; }
]]>
</style>
<script type="application/ecmascript"><![CDATA[
document.addEventListener('DOMContentLoaded', (event) => {
  highlightEdges();
  highlightAdjacentNodes();
});
]]></script>
</svg>
