<?xml version="1.0" encoding="UTF-8" standalone="no"?>
<!DOCTYPE svg PUBLIC "-//W3C//DTD SVG 1.1//EN"
 "http://www.w3.org/Graphics/SVG/1.1/DTD/svg11.dtd">
<!-- Generated by graphviz version 12.2.0 (20241103.1931)
 -->
<!-- Title: Observation Model Pages: 1 -->
<svg width="287pt" height="101pt"
 viewBox="0.00 0.00 286.75 101.25" xmlns="http://www.w3.org/2000/svg" xmlns:xlink="http://www.w3.org/1999/xlink">
<g id="graph0" class="graph" transform="scale(1 1) rotate(0) translate(4 97.25)">
<title>Observation Model</title>
<!-- Node2 -->
<g id="Node000002" class="node">
<title>Node2</title>
<g id="a_Node000002"><a xlink:href="group__infections__estimation.html" target="_top" xlink:title="Functions for estimating infection trajectories.">
<polygon fill="white" stroke="#666666" points="126.25,-93.25 19.5,-93.25 19.5,-74 126.25,-74 126.25,-93.25"/>
<text text-anchor="middle" x="72.88" y="-79.75" font-family="Helvetica,sans-Serif" font-size="10.00">Infections Estimation</text>
</a>
</g>
</g>
<!-- Node1 -->
<g id="Node000001" class="node">
<title>Node1</title>
<g id="a_Node000001"><a xlink:title="Functions for modeling the observation process.">
<polygon fill="#999999" stroke="#666666" points="278.75,-56.25 181.75,-56.25 181.75,-37 278.75,-37 278.75,-56.25"/>
<text text-anchor="middle" x="230.25" y="-42.75" font-family="Helvetica,sans-Serif" font-size="10.00">Observation Model</text>
</a>
</g>
</g>
<!-- Node2&#45;&gt;Node1 -->
<g id="edge1" class="edge">
<title>Node2&#45;&gt;Node1</title>
<path fill="none" stroke="black" d="M127.46,-70.86C146.88,-66.24 168.52,-61.09 186.84,-56.72"/>
<polygon fill="black" stroke="black" points="126.72,-67.44 117.8,-73.16 128.34,-74.25 126.72,-67.44"/>
</g>
<!-- Node3 -->
<g id="Node000003" class="node">
<title>Node3</title>
<g id="a_Node000003"><a xlink:href="group__rt__estimation.html" target="_top" xlink:title="Functions for estimating reproduction numbers.">
<polygon fill="white" stroke="#666666" points="109.75,-56.25 36,-56.25 36,-37 109.75,-37 109.75,-56.25"/>
<text text-anchor="middle" x="72.88" y="-42.75" font-family="Helvetica,sans-Serif" font-size="10.00">Rt Estimation</text>
</a>
</g>
</g>
<!-- Node3&#45;&gt;Node1 -->
<g id="edge2" class="edge">
<title>Node3&#45;&gt;Node1</title>
<path fill="none" stroke="black" d="M121.34,-46.62C140.37,-46.62 162.26,-46.62 181.34,-46.62"/>
<polygon fill="black" stroke="black" points="121.43,-43.13 111.43,-46.63 121.43,-50.13 121.43,-43.13"/>
</g>
<!-- Node4 -->
<g id="Node000004" class="node">
<title>Node4</title>
<g id="a_Node000004"><a xlink:href="group__secondary__reports__estimation.html" target="_top" xlink:title="Functions for estimating secondary epidemiological reports.">
<polygon fill="white" stroke="#666666" points="145.75,-19.25 0,-19.25 0,0 145.75,0 145.75,-19.25"/>
<text text-anchor="middle" x="72.88" y="-5.75" font-family="Helvetica,sans-Serif" font-size="10.00">Secondary Reports Estimation</text>
</a>
</g>
</g>
<!-- Node4&#45;&gt;Node1 -->
<g id="edge3" class="edge">
<title>Node4&#45;&gt;Node1</title>
<path fill="none" stroke="black" d="M127.46,-22.39C146.88,-27.01 168.52,-32.16 186.84,-36.53"/>
<polygon fill="black" stroke="black" points="128.34,-19 117.8,-20.09 126.72,-25.81 128.34,-19"/>
</g>
</g>
</svg>
