<?xml version="1.0" encoding="UTF-8" standalone="no"?>
<!DOCTYPE svg PUBLIC "-//W3C//DTD SVG 1.1//EN"
 "http://www.w3.org/Graphics/SVG/1.1/DTD/svg11.dtd">
<!-- Generated by graphviz version 12.2.0 (20241103.1931)
 -->
<!-- Title: Handlers and Helpers Pages: 1 -->
<svg width="265pt" height="138pt"
 viewBox="0.00 0.00 265.00 138.25" xmlns="http://www.w3.org/2000/svg" xmlns:xlink="http://www.w3.org/1999/xlink">
<g id="graph0" class="graph" transform="scale(1 1) rotate(0) translate(4 134.25)">
<title>Handlers and Helpers</title>
<!-- Node2 -->
<g id="Node000002" class="node">
<title>Node2</title>
<g id="a_Node000002"><a xlink:href="group__convolution__functions.html" target="_top" xlink:title="Functions for convolving time series.">
<polygon fill="white" stroke="#666666" points="257,-130.25 145,-130.25 145,-111 257,-111 257,-130.25"/>
<text text-anchor="middle" x="201" y="-116.75" font-family="Helvetica,sans-Serif" font-size="10.00">Convolution Functions</text>
</a>
</g>
</g>
<!-- Node3 -->
<g id="Node000003" class="node">
<title>Node3</title>
<g id="a_Node000003"><a xlink:href="group__delay__handlers.html" target="_top" xlink:title="Functions for delay distribution handling.">
<polygon fill="white" stroke="#666666" points="241.62,-93.25 160.38,-93.25 160.38,-74 241.62,-74 241.62,-93.25"/>
<text text-anchor="middle" x="201" y="-79.75" font-family="Helvetica,sans-Serif" font-size="10.00">Delay Handlers</text>
</a>
</g>
</g>
<!-- Node1 -->
<g id="Node000001" class="node">
<title>Node1</title>
<g id="a_Node000001"><a xlink:title="Utility functions and parameter handlers.">
<polygon fill="#999999" stroke="#666666" points="109,-74.25 0,-74.25 0,-55 109,-55 109,-74.25"/>
<text text-anchor="middle" x="54.5" y="-60.75" font-family="Helvetica,sans-Serif" font-size="10.00">Handlers and Helpers</text>
</a>
</g>
</g>
<!-- Node1&#45;&gt;Node2 -->
<g id="edge1" class="edge">
<title>Node1&#45;&gt;Node2</title>
<path fill="none" stroke="black" d="M88.14,-79.27C104.98,-86.63 125.94,-95.48 145,-102.62 152.24,-105.34 160.11,-108.05 167.56,-110.52"/>
<polygon fill="black" stroke="black" points="89.67,-76.12 79.11,-75.3 86.85,-82.53 89.67,-76.12"/>
</g>
<!-- Node1&#45;&gt;Node3 -->
<g id="edge2" class="edge">
<title>Node1&#45;&gt;Node3</title>
<path fill="none" stroke="black" d="M120.53,-73.18C134.03,-74.95 147.88,-76.77 160.15,-78.39"/>
<polygon fill="black" stroke="black" points="121.18,-69.73 110.81,-71.9 120.27,-76.67 121.18,-69.73"/>
</g>
<!-- Node5 -->
<g id="Node000005" class="node">
<title>Node5</title>
<g id="a_Node000005"><a xlink:href="group__parameter__handlers.html" target="_top" xlink:title="Functions for parameter management.">
<polygon fill="white" stroke="#666666" points="252.12,-56.25 149.88,-56.25 149.88,-37 252.12,-37 252.12,-56.25"/>
<text text-anchor="middle" x="201" y="-42.75" font-family="Helvetica,sans-Serif" font-size="10.00">Parameter Handlers</text>
</a>
</g>
</g>
<!-- Node1&#45;&gt;Node5 -->
<g id="edge4" class="edge">
<title>Node1&#45;&gt;Node5</title>
<path fill="none" stroke="black" d="M120.57,-56.52C130.28,-55.31 140.16,-54.08 149.5,-52.92"/>
<polygon fill="black" stroke="black" points="120.3,-53.03 110.81,-57.74 121.16,-59.97 120.3,-53.03"/>
</g>
<!-- Node4 -->
<g id="Node000004" class="node">
<title>Node4</title>
<g id="a_Node000004"><a xlink:href="group__pmf__handlers.html" target="_top" xlink:title="Functions for probability mass function handling.">
<polygon fill="white" stroke="#666666" points="240.12,-19.25 161.88,-19.25 161.88,0 240.12,0 240.12,-19.25"/>
<text text-anchor="middle" x="201" y="-5.75" font-family="Helvetica,sans-Serif" font-size="10.00">PMF Handlers</text>
</a>
</g>
</g>
<!-- Node1&#45;&gt;Node4 -->
<g id="edge3" class="edge">
<title>Node1&#45;&gt;Node4</title>
<path fill="none" stroke="black" d="M88.86,-50.13C105.59,-43.04 126.24,-34.56 145,-27.62 152.35,-24.91 160.33,-22.17 167.87,-19.69"/>
<polygon fill="black" stroke="black" points="87.7,-46.82 79.88,-53.96 90.45,-53.25 87.7,-46.82"/>
</g>
</g>
</svg>
