<?xml version="1.0" encoding="UTF-8" standalone="no"?>
<!DOCTYPE svg PUBLIC "-//W3C//DTD SVG 1.1//EN"
 "http://www.w3.org/Graphics/SVG/1.1/DTD/svg11.dtd">
<!-- Generated by graphviz version 12.2.0 (20241103.1931)
 -->
<!-- Title: get_delay_rev_pmf Pages: 1 -->
<svg width="415pt" height="82pt"
 viewBox="0.00 0.00 415.25 82.25" xmlns="http://www.w3.org/2000/svg" xmlns:xlink="http://www.w3.org/1999/xlink">

<svg id="main" version="1.1" xmlns="http://www.w3.org/2000/svg" xmlns:xlink="http://www.w3.org/1999/xlink" xml:space="preserve">

<style type="text/css"><![CDATA[
.node, .edge {opacity: 0.7;}
.node.selected, .edge.selected {opacity: 1;}
.edge:hover path { stroke: red; }
.edge:hover polygon { stroke: red; fill: red; }
]]></style>
<script type="application/ecmascript" xlink:href="svg.min.js"/>
<svg id="graph" class="graph">
<g id="graph0" class="graph" transform="scale(1 1) rotate(0) translate(4 78.25)">
<title>get_delay_rev_pmf</title>
<!-- Node1 -->
<g id="Node000001" class="node">
<title>Node1</title>
<g id="a_Node000001"><a xlink:title=" ">
<polygon fill="#999999" stroke="#666666" points="97.75,-37.25 0,-37.25 0,-18 97.75,-18 97.75,-37.25"/>
<text text-anchor="middle" x="48.88" y="-23.75" font-family="Helvetica,sans-Serif" font-size="10.00">get_delay_rev_pmf</text>
</a>
</g>
</g>
<!-- Node2 -->
<g id="Node000002" class="node">
<title>Node2</title>
<g id="a_Node000002"><a xlink:href="group__convolution__functions.html#ga1b4de88baf4243a2a00cd7fd74c3cd17" target="_top" xlink:title=" ">
<polygon fill="white" stroke="#666666" points="252.5,-56.25 133.75,-56.25 133.75,-37 252.5,-37 252.5,-56.25"/>
<text text-anchor="middle" x="193.12" y="-42.75" font-family="Helvetica,sans-Serif" font-size="10.00">convolve_with_rev_pmf</text>
</a>
</g>
</g>
<!-- Node1&#45;&gt;Node2 -->
<g id="edge1_Node000001_Node000002" class="edge">
<title>Node1&#45;&gt;Node2</title>
<g id="a_edge1_Node000001_Node000002"><a xlink:title=" ">
<path fill="none" stroke="#63b8ff" d="M98.03,-34.06C105.85,-35.1 114.08,-36.2 122.28,-37.3"/>
<polygon fill="#63b8ff" stroke="#63b8ff" points="121.54,-40.73 131.91,-38.58 122.46,-33.79 121.54,-40.73"/>
</a>
</g>
</g>
<!-- Node5 -->
<g id="Node000005" class="node">
<title>Node5</title>
<g id="a_Node000005"><a xlink:href="group__pmf__handlers.html#gac942c03301a61863395d20a4a966e54a" target="_top" xlink:title=" ">
<polygon fill="white" stroke="#666666" points="235.62,-19.25 150.62,-19.25 150.62,0 235.62,0 235.62,-19.25"/>
<text text-anchor="middle" x="193.12" y="-5.75" font-family="Helvetica,sans-Serif" font-size="10.00">discretised_pmf</text>
</a>
</g>
</g>
<!-- Node1&#45;&gt;Node5 -->
<g id="edge4_Node000001_Node000005" class="edge">
<title>Node1&#45;&gt;Node5</title>
<g id="a_edge4_Node000001_Node000005"><a xlink:title=" ">
<path fill="none" stroke="#63b8ff" d="M98.03,-21.53C111.26,-19.86 125.67,-18.03 139.15,-16.33"/>
<polygon fill="#63b8ff" stroke="#63b8ff" points="139.22,-19.85 148.7,-15.12 138.34,-12.9 139.22,-19.85"/>
</a>
</g>
</g>
<!-- Node3 -->
<g id="Node000003" class="node">
<title>Node3</title>
<g id="a_Node000003"><a xlink:href="group__convolution__functions.html#ga46716cd90141e7342af1302d46d04a6b" target="_top" xlink:title=" ">
<polygon fill="white" stroke="#666666" points="405,-74.25 290.75,-74.25 290.75,-55 405,-55 405,-74.25"/>
<text text-anchor="middle" x="347.88" y="-60.75" font-family="Helvetica,sans-Serif" font-size="10.00">calc_conv_indices_len</text>
</a>
</g>
</g>
<!-- Node2&#45;&gt;Node3 -->
<g id="edge2_Node000002_Node000003" class="edge">
<title>Node2&#45;&gt;Node3</title>
<g id="a_edge2_Node000002_Node000003"><a xlink:title=" ">
<path fill="none" stroke="#63b8ff" d="M252.75,-53.53C261.34,-54.55 270.26,-55.6 279.03,-56.63"/>
<polygon fill="#63b8ff" stroke="#63b8ff" points="278.58,-60.1 288.92,-57.8 279.4,-53.15 278.58,-60.1"/>
</a>
</g>
</g>
<!-- Node4 -->
<g id="Node000004" class="node">
<title>Node4</title>
<g id="a_Node000004"><a xlink:href="group__convolution__functions.html#ga61201e9eb433327cf62ba6f6c1258717" target="_top" xlink:title=" ">
<polygon fill="white" stroke="#666666" points="407.25,-37.25 288.5,-37.25 288.5,-18 407.25,-18 407.25,-37.25"/>
<text text-anchor="middle" x="347.88" y="-23.75" font-family="Helvetica,sans-Serif" font-size="10.00">calc_conv_indices_xlen</text>
</a>
</g>
</g>
<!-- Node2&#45;&gt;Node4 -->
<g id="edge3_Node000002_Node000004" class="edge">
<title>Node2&#45;&gt;Node4</title>
<g id="a_edge3_Node000002_Node000004"><a xlink:title=" ">
<path fill="none" stroke="#63b8ff" d="M252.75,-39.33C260.64,-38.35 268.8,-37.34 276.86,-36.33"/>
<polygon fill="#63b8ff" stroke="#63b8ff" points="277.17,-39.82 286.66,-35.12 276.3,-32.88 277.17,-39.82"/>
</a>
</g>
</g>
</g>
</svg>
</svg>

<style type='text/css'>
<![CDATA[
[data-mouse-over-selected='false'] { opacity: 0.7; }
[data-mouse-over-selected='true']  { opacity: 1.0; }
]]>
</style>
<script type="application/ecmascript"><![CDATA[
document.addEventListener('DOMContentLoaded', (event) => {
  highlightEdges();
  highlightAdjacentNodes();
});
]]></script>
</svg>
