<?xml version="1.0" encoding="UTF-8" standalone="no"?>
<!DOCTYPE svg PUBLIC "-//W3C//DTD SVG 1.1//EN"
 "http://www.w3.org/Graphics/SVG/1.1/DTD/svg11.dtd">
<!-- Generated by graphviz version 12.2.0 (20241103.1931)
 -->
<!-- Title: setup_gp Pages: 1 -->
<svg width="172pt" height="64pt"
 viewBox="0.00 0.00 172.00 64.25" xmlns="http://www.w3.org/2000/svg" xmlns:xlink="http://www.w3.org/1999/xlink">
<g id="graph0" class="graph" transform="scale(1 1) rotate(0) translate(4 60.25)">
<title>setup_gp</title>
<!-- Node1 -->
<g id="Node000001" class="node">
<title>Node1</title>
<g id="a_Node000001"><a xlink:title=" ">
<polygon fill="#999999" stroke="#666666" points="55.75,-37.25 0,-37.25 0,-18 55.75,-18 55.75,-37.25"/>
<text text-anchor="middle" x="27.88" y="-23.75" font-family="Helvetica,sans-Serif" font-size="10.00">setup_gp</text>
</a>
</g>
</g>
<!-- Node2 -->
<g id="Node000002" class="node">
<title>Node2</title>
<g id="a_Node000002"><a xlink:href="group__estimates__smoothing.html#gacb839312fe55f00e52b127baf5255990" target="_top" xlink:title=" ">
<polygon fill="white" stroke="#666666" points="144.5,-56.25 111.25,-56.25 111.25,-37 144.5,-37 144.5,-56.25"/>
<text text-anchor="middle" x="127.88" y="-42.75" font-family="Helvetica,sans-Serif" font-size="10.00">PHI</text>
</a>
</g>
</g>
<!-- Node1&#45;&gt;Node2 -->
<g id="edge1_Node000001_Node000002" class="edge">
<title>Node1&#45;&gt;Node2</title>
<g id="a_edge1_Node000001_Node000002"><a xlink:title=" ">
<path fill="none" stroke="#63b8ff" d="M56.17,-32.92C69.84,-35.57 86.33,-38.76 99.95,-41.4"/>
<polygon fill="#63b8ff" stroke="#63b8ff" points="99.06,-44.8 109.54,-43.26 100.39,-37.93 99.06,-44.8"/>
</a>
</g>
</g>
<!-- Node3 -->
<g id="Node000003" class="node">
<title>Node3</title>
<g id="a_Node000003"><a xlink:href="group__estimates__smoothing.html#ga3d1737e856bfefe04087fd613bafc09d" target="_top" xlink:title=" ">
<polygon fill="white" stroke="#666666" points="164,-19.25 91.75,-19.25 91.75,0 164,0 164,-19.25"/>
<text text-anchor="middle" x="127.88" y="-5.75" font-family="Helvetica,sans-Serif" font-size="10.00">PHI_periodic</text>
</a>
</g>
</g>
<!-- Node1&#45;&gt;Node3 -->
<g id="edge2_Node000001_Node000003" class="edge">
<title>Node1&#45;&gt;Node3</title>
<g id="a_edge2_Node000001_Node000003"><a xlink:title=" ">
<path fill="none" stroke="#63b8ff" d="M56.17,-22.61C63.65,-21.24 71.97,-19.71 80.2,-18.2"/>
<polygon fill="#63b8ff" stroke="#63b8ff" points="80.6,-21.68 89.8,-16.44 79.33,-14.8 80.6,-21.68"/>
</a>
</g>
</g>
</g>
</svg>
