<?xml version="1.0" encoding="UTF-8" standalone="no"?>
<!DOCTYPE svg PUBLIC "-//W3C//DTD SVG 1.1//EN"
 "http://www.w3.org/Graphics/SVG/1.1/DTD/svg11.dtd">
<!-- Generated by graphviz version 12.2.0 (20241103.1931)
 -->
<!-- Title: R_to_r_newton_step Pages: 1 -->
<svg width="331pt" height="27pt"
 viewBox="0.00 0.00 330.50 27.25" xmlns="http://www.w3.org/2000/svg" xmlns:xlink="http://www.w3.org/1999/xlink">
<g id="graph0" class="graph" transform="scale(1 1) rotate(0) translate(4 23.25)">
<title>R_to_r_newton_step</title>
<!-- Node1 -->
<g id="Node000001" class="node">
<title>Node1</title>
<g id="a_Node000001"><a xlink:title=" ">
<polygon fill="#999999" stroke="#666666" points="322.5,-19.25 217.25,-19.25 217.25,0 322.5,0 322.5,-19.25"/>
<text text-anchor="middle" x="269.88" y="-5.75" font-family="Helvetica,sans-Serif" font-size="10.00">R_to_r_newton_step</text>
</a>
</g>
</g>
<!-- Node2 -->
<g id="Node000002" class="node">
<title>Node2</title>
<g id="a_Node000002"><a xlink:href="group__rt__estimation.html#gab6cc5437be69ba05ef8b5b6c10cbdf51" target="_top" xlink:title=" ">
<polygon fill="white" stroke="#666666" points="181.25,-19.25 136.75,-19.25 136.75,0 181.25,0 181.25,-19.25"/>
<text text-anchor="middle" x="159" y="-5.75" font-family="Helvetica,sans-Serif" font-size="10.00">R_to_r</text>
</a>
</g>
</g>
<!-- Node1&#45;&gt;Node2 -->
<g id="edge1_Node000001_Node000002" class="edge">
<title>Node1&#45;&gt;Node2</title>
<g id="a_edge1_Node000001_Node000002"><a xlink:title=" ">
<path fill="none" stroke="#63b8ff" d="M205.6,-9.62C197.01,-9.62 188.72,-9.62 181.62,-9.62"/>
<polygon fill="#63b8ff" stroke="#63b8ff" points="205.47,-13.13 215.47,-9.63 205.47,-6.13 205.47,-13.13"/>
</a>
</g>
</g>
<!-- Node3 -->
<g id="Node000003" class="node">
<title>Node3</title>
<g id="a_Node000003"><a xlink:href="group__infections__estimation.html#gad73c77fe949c016d439e0ac63ce1aa6a" target="_top" xlink:title="Generate infections using a renewal equation approach.">
<polygon fill="white" stroke="#666666" points="100.75,-19.25 0,-19.25 0,0 100.75,0 100.75,-19.25"/>
<text text-anchor="middle" x="50.38" y="-5.75" font-family="Helvetica,sans-Serif" font-size="10.00">generate_infections</text>
</a>
</g>
</g>
<!-- Node2&#45;&gt;Node3 -->
<g id="edge2_Node000002_Node000003" class="edge">
<title>Node2&#45;&gt;Node3</title>
<g id="a_edge2_Node000002_Node000003"><a xlink:title=" ">
<path fill="none" stroke="#63b8ff" d="M125.12,-9.62C117.52,-9.62 109.26,-9.62 101.12,-9.62"/>
<polygon fill="#63b8ff" stroke="#63b8ff" points="124.91,-13.13 134.91,-9.63 124.91,-6.13 124.91,-13.13"/>
</a>
</g>
</g>
</g>
</svg>
