<?xml version="1.0" encoding="UTF-8" standalone="no"?>
<!DOCTYPE svg PUBLIC "-//W3C//DTD SVG 1.1//EN"
 "http://www.w3.org/Graphics/SVG/1.1/DTD/svg11.dtd">
<!-- Generated by graphviz version 12.2.0 (20241103.1931)
 -->
<!-- Title: Estimates Smoothing Pages: 1 -->
<svg width="298pt" height="101pt"
 viewBox="0.00 0.00 298.00 101.25" xmlns="http://www.w3.org/2000/svg" xmlns:xlink="http://www.w3.org/1999/xlink">

<svg id="main" version="1.1" xmlns="http://www.w3.org/2000/svg" xmlns:xlink="http://www.w3.org/1999/xlink" xml:space="preserve">

<style type="text/css"><![CDATA[
.node, .edge {opacity: 0.7;}
.node.selected, .edge.selected {opacity: 1;}
.edge:hover path { stroke: red; }
.edge:hover polygon { stroke: red; fill: red; }
]]></style>
<script type="application/ecmascript" xlink:href="svg.min.js"/>
<svg id="graph" class="graph">
<g id="graph0" class="graph" transform="scale(1 1) rotate(0) translate(4 97.25)">
<title>Estimates Smoothing</title>
<!-- Node1 -->
<g id="Node000001" class="node">
<title>Node1</title>
<g id="a_Node000001"><a xlink:title="Functions for smoothing estimates using Gaussian processes.">
<polygon fill="#999999" stroke="#666666" points="290,-56.25 181.75,-56.25 181.75,-37 290,-37 290,-56.25"/>
<text text-anchor="middle" x="235.88" y="-42.75" font-family="Helvetica,sans-Serif" font-size="10.00">Estimates Smoothing</text>
</a>
</g>
</g>
<!-- Node2 -->
<g id="Node000002" class="node">
<title>Node2</title>
<g id="a_Node000002"><a xlink:href="group__infections__estimation.html" target="_top" xlink:title="Functions for estimating infection trajectories.">
<polygon fill="white" stroke="#666666" points="126.25,-93.25 19.5,-93.25 19.5,-74 126.25,-74 126.25,-93.25"/>
<text text-anchor="middle" x="72.88" y="-79.75" font-family="Helvetica,sans-Serif" font-size="10.00">Infections Estimation</text>
</a>
</g>
</g>
<!-- Node2&#45;&gt;Node1 -->
<g id="edge1" class="edge">
<title>Node2&#45;&gt;Node1</title>
<path fill="none" stroke="black" d="M128.84,-70.99C149.1,-66.34 171.77,-61.13 190.93,-56.72"/>
<polygon fill="black" stroke="black" points="128.31,-67.52 119.34,-73.18 129.87,-74.35 128.31,-67.52"/>
</g>
<!-- Node3 -->
<g id="Node000003" class="node">
<title>Node3</title>
<g id="a_Node000003"><a xlink:href="group__rt__estimation.html" target="_top" xlink:title="Functions for estimating reproduction numbers.">
<polygon fill="white" stroke="#666666" points="109.75,-56.25 36,-56.25 36,-37 109.75,-37 109.75,-56.25"/>
<text text-anchor="middle" x="72.88" y="-42.75" font-family="Helvetica,sans-Serif" font-size="10.00">Rt Estimation</text>
</a>
</g>
</g>
<!-- Node3&#45;&gt;Node1 -->
<g id="edge2" class="edge">
<title>Node3&#45;&gt;Node1</title>
<path fill="none" stroke="black" d="M121.33,-46.62C140.21,-46.62 162.01,-46.62 181.44,-46.62"/>
<polygon fill="black" stroke="black" points="121.52,-43.13 111.52,-46.63 121.52,-50.13 121.52,-43.13"/>
</g>
<!-- Node4 -->
<g id="Node000004" class="node">
<title>Node4</title>
<g id="a_Node000004"><a xlink:href="group__secondary__reports__estimation.html" target="_top" xlink:title="Functions for estimating secondary epidemiological reports.">
<polygon fill="white" stroke="#666666" points="145.75,-19.25 0,-19.25 0,0 145.75,0 145.75,-19.25"/>
<text text-anchor="middle" x="72.88" y="-5.75" font-family="Helvetica,sans-Serif" font-size="10.00">Secondary Reports Estimation</text>
</a>
</g>
</g>
<!-- Node4&#45;&gt;Node1 -->
<g id="edge3" class="edge">
<title>Node4&#45;&gt;Node1</title>
<path fill="none" stroke="black" d="M128.84,-22.26C149.1,-26.91 171.77,-32.12 190.93,-36.53"/>
<polygon fill="black" stroke="black" points="129.87,-18.9 119.34,-20.07 128.31,-25.73 129.87,-18.9"/>
</g>
</g>
</svg>
</svg>

<style type='text/css'>
<![CDATA[
[data-mouse-over-selected='false'] { opacity: 0.7; }
[data-mouse-over-selected='true']  { opacity: 1.0; }
]]>
</style>
<script type="application/ecmascript"><![CDATA[
document.addEventListener('DOMContentLoaded', (event) => {
  highlightEdges();
  highlightAdjacentNodes();
});
]]></script>
</svg>
