<?xml version="1.0" encoding="UTF-8" standalone="no"?>
<!DOCTYPE svg PUBLIC "-//W3C//DTD SVG 1.1//EN"
 "http://www.w3.org/Graphics/SVG/1.1/DTD/svg11.dtd">
<!-- Generated by graphviz version 12.2.0 (20241103.1931)
 -->
<!-- Title: update_infectiousness Pages: 1 -->
<svg width="258pt" height="64pt"
 viewBox="0.00 0.00 258.25 64.25" xmlns="http://www.w3.org/2000/svg" xmlns:xlink="http://www.w3.org/1999/xlink">
<g id="graph0" class="graph" transform="scale(1 1) rotate(0) translate(4 60.25)">
<title>update_infectiousness</title>
<!-- Node1 -->
<g id="Node000001" class="node">
<title>Node1</title>
<g id="a_Node000001"><a xlink:title=" ">
<polygon fill="#999999" stroke="#666666" points="250.25,-37.25 136.75,-37.25 136.75,-18 250.25,-18 250.25,-37.25"/>
<text text-anchor="middle" x="193.5" y="-23.75" font-family="Helvetica,sans-Serif" font-size="10.00">update_infectiousness</text>
</a>
</g>
</g>
<!-- Node2 -->
<g id="Node000002" class="node">
<title>Node2</title>
<g id="a_Node000002"><a xlink:href="group__rt__estimation.html#ga2d17e8b4b2a9d69dd576396d14b218e9" target="_top" xlink:title=" ">
<polygon fill="white" stroke="#666666" points="85.38,-56.25 15.38,-56.25 15.38,-37 85.38,-37 85.38,-56.25"/>
<text text-anchor="middle" x="50.38" y="-42.75" font-family="Helvetica,sans-Serif" font-size="10.00">calculate_Rt</text>
</a>
</g>
</g>
<!-- Node1&#45;&gt;Node2 -->
<g id="edge1_Node000001_Node000002" class="edge">
<title>Node1&#45;&gt;Node2</title>
<g id="a_edge1_Node000001_Node000002"><a xlink:title=" ">
<path fill="none" stroke="#63b8ff" d="M125,-36.71C111.42,-38.54 97.7,-40.39 85.83,-41.99"/>
<polygon fill="#63b8ff" stroke="#63b8ff" points="125.37,-40.19 134.82,-35.39 124.44,-33.26 125.37,-40.19"/>
</a>
</g>
</g>
<!-- Node3 -->
<g id="Node000003" class="node">
<title>Node3</title>
<g id="a_Node000003"><a xlink:href="group__infections__estimation.html#gad73c77fe949c016d439e0ac63ce1aa6a" target="_top" xlink:title="Generate infections using a renewal equation approach.">
<polygon fill="white" stroke="#666666" points="100.75,-19.25 0,-19.25 0,0 100.75,0 100.75,-19.25"/>
<text text-anchor="middle" x="50.38" y="-5.75" font-family="Helvetica,sans-Serif" font-size="10.00">generate_infections</text>
</a>
</g>
</g>
<!-- Node1&#45;&gt;Node3 -->
<g id="edge2_Node000001_Node000003" class="edge">
<title>Node1&#45;&gt;Node3</title>
<g id="a_edge2_Node000001_Node000003"><a xlink:title=" ">
<path fill="none" stroke="#63b8ff" d="M124.97,-19.01C116.88,-17.98 108.74,-16.94 100.98,-15.95"/>
<polygon fill="#63b8ff" stroke="#63b8ff" points="124.45,-22.47 134.82,-20.27 125.34,-15.53 124.45,-22.47"/>
</a>
</g>
</g>
</g>
</svg>
