<?xml version="1.0" encoding="UTF-8" standalone="no"?>
<!DOCTYPE svg PUBLIC "-//W3C//DTD SVG 1.1//EN"
 "http://www.w3.org/Graphics/SVG/1.1/DTD/svg11.dtd">
<!-- Generated by graphviz version 12.2.0 (20241103.1931)
 -->
<!-- Title: Secondary Reports Estimation Pages: 1 -->
<svg width="298pt" height="64pt"
 viewBox="0.00 0.00 298.00 64.25" xmlns="http://www.w3.org/2000/svg" xmlns:xlink="http://www.w3.org/1999/xlink">
<g id="graph0" class="graph" transform="scale(1 1) rotate(0) translate(4 60.25)">
<title>Secondary Reports Estimation</title>
<!-- Node2 -->
<g id="Node000002" class="node">
<title>Node2</title>
<g id="a_Node000002"><a xlink:href="group__estimates__smoothing.html" target="_top" xlink:title="Functions for smoothing estimates using Gaussian processes.">
<polygon fill="white" stroke="#666666" points="290,-56.25 181.75,-56.25 181.75,-37 290,-37 290,-56.25"/>
<text text-anchor="middle" x="235.88" y="-42.75" font-family="Helvetica,sans-Serif" font-size="10.00">Estimates Smoothing</text>
</a>
</g>
</g>
<!-- Node3 -->
<g id="Node000003" class="node">
<title>Node3</title>
<g id="a_Node000003"><a xlink:href="group__observation__model.html" target="_top" xlink:title="Functions for modeling the observation process.">
<polygon fill="white" stroke="#666666" points="284.38,-19.25 187.38,-19.25 187.38,0 284.38,0 284.38,-19.25"/>
<text text-anchor="middle" x="235.88" y="-5.75" font-family="Helvetica,sans-Serif" font-size="10.00">Observation Model</text>
</a>
</g>
</g>
<!-- Node1 -->
<g id="Node000001" class="node">
<title>Node1</title>
<g id="a_Node000001"><a xlink:title="Functions for estimating secondary epidemiological reports.">
<polygon fill="#999999" stroke="#666666" points="145.75,-37.25 0,-37.25 0,-18 145.75,-18 145.75,-37.25"/>
<text text-anchor="middle" x="72.88" y="-23.75" font-family="Helvetica,sans-Serif" font-size="10.00">Secondary Reports Estimation</text>
</a>
</g>
</g>
<!-- Node1&#45;&gt;Node2 -->
<g id="edge1" class="edge">
<title>Node1&#45;&gt;Node2</title>
<path fill="none" stroke="black" d="M157.09,-37.44C165.3,-38.41 173.47,-39.38 181.26,-40.3"/>
<polygon fill="black" stroke="black" points="157.74,-34 147.4,-36.3 156.92,-40.95 157.74,-34"/>
</g>
<!-- Node1&#45;&gt;Node3 -->
<g id="edge2" class="edge">
<title>Node1&#45;&gt;Node3</title>
<path fill="none" stroke="black" d="M157.01,-18.33C167.27,-17.18 177.46,-16.04 186.93,-14.98"/>
<polygon fill="black" stroke="black" points="156.95,-14.81 147.4,-19.4 157.73,-21.77 156.95,-14.81"/>
</g>
</g>
</svg>
