<?xml version="1.0" encoding="UTF-8" standalone="no"?>
<!DOCTYPE svg PUBLIC "-//W3C//DTD SVG 1.1//EN"
 "http://www.w3.org/Graphics/SVG/1.1/DTD/svg11.dtd">
<!-- Generated by graphviz version 12.2.0 (20241103.1931)
 -->
<!-- Title: convolve_with_rev_pmf Pages: 1 -->
<svg width="261pt" height="64pt"
 viewBox="0.00 0.00 261.25 64.25" xmlns="http://www.w3.org/2000/svg" xmlns:xlink="http://www.w3.org/1999/xlink">
<g id="graph0" class="graph" transform="scale(1 1) rotate(0) translate(4 60.25)">
<title>convolve_with_rev_pmf</title>
<!-- Node1 -->
<g id="Node000001" class="node">
<title>Node1</title>
<g id="a_Node000001"><a xlink:title=" ">
<polygon fill="#999999" stroke="#666666" points="253.25,-37.25 134.5,-37.25 134.5,-18 253.25,-18 253.25,-37.25"/>
<text text-anchor="middle" x="193.88" y="-23.75" font-family="Helvetica,sans-Serif" font-size="10.00">convolve_with_rev_pmf</text>
</a>
</g>
</g>
<!-- Node2 -->
<g id="Node000002" class="node">
<title>Node2</title>
<g id="a_Node000002"><a xlink:href="group__convolution__functions.html#ga49ecbffec21a9166c69529fce8ff0f1e" target="_top" xlink:title=" ">
<polygon fill="white" stroke="#666666" points="98.5,-56.25 0,-56.25 0,-37 98.5,-37 98.5,-56.25"/>
<text text-anchor="middle" x="49.25" y="-42.75" font-family="Helvetica,sans-Serif" font-size="10.00">convolve_to_report</text>
</a>
</g>
</g>
<!-- Node1&#45;&gt;Node2 -->
<g id="edge1_Node000001_Node000002" class="edge">
<title>Node1&#45;&gt;Node2</title>
<g id="a_edge1_Node000001_Node000002"><a xlink:title=" ">
<path fill="none" stroke="#63b8ff" d="M122.73,-36.97C114.7,-38.04 106.64,-39.11 98.97,-40.13"/>
<polygon fill="#63b8ff" stroke="#63b8ff" points="123.09,-40.45 132.54,-35.66 122.17,-33.51 123.09,-40.45"/>
</a>
</g>
</g>
<!-- Node3 -->
<g id="Node000003" class="node">
<title>Node3</title>
<g id="a_Node000003"><a xlink:href="group__delay__handlers.html#gaefea9dfede01b97f9de1d617eb79916d" target="_top" xlink:title=" ">
<polygon fill="white" stroke="#666666" points="98.12,-19.25 0.38,-19.25 0.38,0 98.12,0 98.12,-19.25"/>
<text text-anchor="middle" x="49.25" y="-5.75" font-family="Helvetica,sans-Serif" font-size="10.00">get_delay_rev_pmf</text>
</a>
</g>
</g>
<!-- Node1&#45;&gt;Node3 -->
<g id="edge2_Node000001_Node000003" class="edge">
<title>Node1&#45;&gt;Node3</title>
<g id="a_edge2_Node000001_Node000003"><a xlink:title=" ">
<path fill="none" stroke="#63b8ff" d="M122.87,-18.79C114.63,-17.75 106.37,-16.71 98.53,-15.72"/>
<polygon fill="#63b8ff" stroke="#63b8ff" points="122.18,-22.23 132.54,-20.01 123.06,-15.29 122.18,-22.23"/>
</a>
</g>
</g>
</g>
</svg>
