<?xml version="1.0" encoding="UTF-8" standalone="no"?>
<!DOCTYPE svg PUBLIC "-//W3C//DTD SVG 1.1//EN"
 "http://www.w3.org/Graphics/SVG/1.1/DTD/svg11.dtd">
<!-- Generated by graphviz version 12.2.0 (20241103.1931)
 -->
<!-- Title: convolve_with_rev_pmf Pages: 1 -->
<svg width="282pt" height="64pt"
 viewBox="0.00 0.00 281.50 64.25" xmlns="http://www.w3.org/2000/svg" xmlns:xlink="http://www.w3.org/1999/xlink">
<g id="graph0" class="graph" transform="scale(1 1) rotate(0) translate(4 60.25)">
<title>convolve_with_rev_pmf</title>
<!-- Node1 -->
<g id="Node000001" class="node">
<title>Node1</title>
<g id="a_Node000001"><a xlink:title=" ">
<polygon fill="#999999" stroke="#666666" points="118.75,-37.25 0,-37.25 0,-18 118.75,-18 118.75,-37.25"/>
<text text-anchor="middle" x="59.38" y="-23.75" font-family="Helvetica,sans-Serif" font-size="10.00">convolve_with_rev_pmf</text>
</a>
</g>
</g>
<!-- Node2 -->
<g id="Node000002" class="node">
<title>Node2</title>
<g id="a_Node000002"><a xlink:href="group__convolution__functions.html#ga46716cd90141e7342af1302d46d04a6b" target="_top" xlink:title=" ">
<polygon fill="white" stroke="#666666" points="271.25,-56.25 157,-56.25 157,-37 271.25,-37 271.25,-56.25"/>
<text text-anchor="middle" x="214.12" y="-42.75" font-family="Helvetica,sans-Serif" font-size="10.00">calc_conv_indices_len</text>
</a>
</g>
</g>
<!-- Node1&#45;&gt;Node2 -->
<g id="edge1_Node000001_Node000002" class="edge">
<title>Node1&#45;&gt;Node2</title>
<g id="a_edge1_Node000001_Node000002"><a xlink:title=" ">
<path fill="none" stroke="#63b8ff" d="M119,-34.92C127.59,-35.99 136.51,-37.1 145.28,-38.19"/>
<polygon fill="#63b8ff" stroke="#63b8ff" points="144.82,-41.66 155.17,-39.42 145.68,-34.71 144.82,-41.66"/>
</a>
</g>
</g>
<!-- Node3 -->
<g id="Node000003" class="node">
<title>Node3</title>
<g id="a_Node000003"><a xlink:href="group__convolution__functions.html#ga61201e9eb433327cf62ba6f6c1258717" target="_top" xlink:title=" ">
<polygon fill="white" stroke="#666666" points="273.5,-19.25 154.75,-19.25 154.75,0 273.5,0 273.5,-19.25"/>
<text text-anchor="middle" x="214.12" y="-5.75" font-family="Helvetica,sans-Serif" font-size="10.00">calc_conv_indices_xlen</text>
</a>
</g>
</g>
<!-- Node1&#45;&gt;Node3 -->
<g id="edge2_Node000001_Node000003" class="edge">
<title>Node1&#45;&gt;Node3</title>
<g id="a_edge2_Node000001_Node000003"><a xlink:title=" ">
<path fill="none" stroke="#63b8ff" d="M119,-20.72C126.89,-19.79 135.05,-18.83 143.11,-17.88"/>
<polygon fill="#63b8ff" stroke="#63b8ff" points="143.38,-21.37 152.91,-16.72 142.57,-14.42 143.38,-21.37"/>
</a>
</g>
</g>
</g>
</svg>
